<svg width="79" height="48" viewBox="0 0 79 48" fill="none" xmlns="http://www.w3.org/2000/svg">
    <path fill-rule="evenodd" clip-rule="evenodd" d="M0.409628 47.3961C0.409628 47.3961 0.409543 47.3962 0.540381 47.4696C0.611769 47.6015 0.611862 47.6014 0.611862 47.6014L0.619207 47.5975L0.641693 47.5854L0.730246 47.5381C0.808133 47.4966 0.923024 47.4358 1.07077 47.3587C1.36627 47.2043 1.79315 46.9844 2.31819 46.7224C3.36843 46.1984 4.81072 45.5066 6.37957 44.8348C7.94898 44.1627 9.64209 43.512 11.1946 43.0692C12.7528 42.6247 14.1483 42.396 15.132 42.5498L15.1784 42.2534C14.1258 42.0888 12.6762 42.3346 11.1123 42.7807C9.54273 43.2284 7.83669 43.8845 6.26148 44.559C4.68572 45.2337 3.23793 45.9283 2.18425 46.454C1.65734 46.7169 1.2288 46.9376 0.931865 47.0927C0.925062 47.0963 0.918329 47.0998 0.911665 47.1033C0.956734 47.0197 1.00745 46.9251 1.06323 46.8203C1.30748 46.3613 1.64875 45.7058 2.03715 44.9195C2.81366 43.3474 3.77982 41.2498 4.53536 39.1524C5.28904 37.0601 5.84056 34.9485 5.77204 33.3559C5.73773 32.5585 5.54729 31.8708 5.12827 31.3831C4.70457 30.8899 4.0673 30.6241 3.19209 30.6327L3.19501 30.9326C4.00466 30.9248 4.5481 31.1682 4.90071 31.5786C5.258 31.9945 5.43944 32.6048 5.47231 33.3688C5.53814 34.8988 5.00515 36.963 4.25312 39.0507C3.50294 41.1332 2.54217 43.2196 1.76818 44.7866C1.38133 45.5698 1.04147 46.2226 0.798384 46.6794C0.676849 46.9078 0.579525 47.0872 0.512639 47.2094C0.479196 47.2705 0.453365 47.3173 0.435922 47.3488L0.416148 47.3844L0.409628 47.3961ZM0.540381 47.4696L0.611862 47.6014L0.15625 47.848L0.409628 47.3961L0.540381 47.4696Z" fill="white"/>
    <path fill-rule="evenodd" clip-rule="evenodd" d="M38.803 11.1121C25.9195 18.056 14.4216 27.813 7.47066 39.0641L7.72589 39.2218C14.6422 28.0266 26.095 18.3022 38.9453 11.3762C51.7957 4.45023 66.0299 0.330152 78.4996 0.330151V0.0301514C65.9694 0.0301508 51.6865 4.16828 38.803 11.1121Z" fill="white"/>
</svg>
